<svg width="20" height="19" viewBox="0 0 20 19" fill="none" xmlns="http://www.w3.org/2000/svg">
<g id="check_circle" filter="url(#filter0_d_117_78)">
<path id="check_circle_2" d="M8.16 11.76L12.39 7.53L11.55 6.69L8.16 10.08L6.45 8.37L5.61 9.21L8.16 11.76ZM9 15C8.17 15 7.39 14.8425 6.66 14.5275C5.93 14.2125 5.295 13.785 4.755 13.245C4.215 12.705 3.7875 12.07 3.4725 11.34C3.1575 10.61 3 9.83 3 9C3 8.17 3.1575 7.39 3.4725 6.66C3.7875 5.93 4.215 5.295 4.755 4.755C5.295 4.215 5.93 3.7875 6.66 3.4725C7.39 3.1575 8.17 3 9 3C9.83 3 10.61 3.1575 11.34 3.4725C12.07 3.7875 12.705 4.215 13.245 4.755C13.785 5.295 14.2125 5.93 14.5275 6.66C14.8425 7.39 15 8.17 15 9C15 9.83 14.8425 10.61 14.5275 11.34C14.2125 12.07 13.785 12.705 13.245 13.245C12.705 13.785 12.07 14.2125 11.34 14.5275C10.61 14.8425 9.83 15 9 15ZM9 13.8C10.34 13.8 11.475 13.335 12.405 12.405C13.335 11.475 13.8 10.34 13.8 9C13.8 7.66 13.335 6.525 12.405 5.595C11.475 4.665 10.34 4.2 9 4.2C7.66 4.2 6.525 4.665 5.595 5.595C4.665 6.525 4.2 7.66 4.2 9C4.2 10.34 4.665 11.475 5.595 12.405C6.525 13.335 7.66 13.8 9 13.8Z" fill="#FF5500" fill-opacity="0.8"/>
</g>
<defs>
<filter id="filter0_d_117_78" x="0" y="0" width="20" height="20" filterUnits="userSpaceOnUse" color-interpolation-filters="sRGB">
<feFlood flood-opacity="0" result="BackgroundImageFix"/>
<feColorMatrix in="SourceAlpha" type="matrix" values="0 0 0 0 0 0 0 0 0 0 0 0 0 0 0 0 0 0 127 0" result="hardAlpha"/>
<feOffset dx="1" dy="1"/>
<feGaussianBlur stdDeviation="2"/>
<feComposite in2="hardAlpha" operator="out"/>
<feColorMatrix type="matrix" values="0 0 0 0 0 0 0 0 0 0 0 0 0 0 0 0 0 0 0.25 0"/>
<feBlend mode="normal" in2="BackgroundImageFix" result="effect1_dropShadow_117_78"/>
<feBlend mode="normal" in="SourceGraphic" in2="effect1_dropShadow_117_78" result="shape"/>
</filter>
</defs>
</svg>
