<svg width="32" height="32" viewBox="0 0 32 32" fill="none" xmlns="http://www.w3.org/2000/svg">
<g id="chat">
<mask id="mask0_146_278" style="mask-type:alpha" maskUnits="userSpaceOnUse" x="0" y="0" width="32" height="32">
<rect id="Bounding box" width="32" height="32" fill="#D9D9D9"/>
</mask>
<g mask="url(#mask0_146_278)">
<path id="chat_2" d="M7.99999 24.0003L4.36666 27.6337C4.05555 27.9448 3.69443 28.0153 3.28332 27.8451C2.87221 27.675 2.66666 27.3712 2.66666 26.9337V4.66699C2.66666 4.13366 2.86666 3.66699 3.26666 3.26699C3.66666 2.86699 4.13332 2.66699 4.66666 2.66699H27.3333C27.8667 2.66699 28.3333 2.86699 28.7333 3.26699C29.1333 3.66699 29.3333 4.13366 29.3333 4.66699V22.0003C29.3333 22.5337 29.1333 23.0003 28.7333 23.4003C28.3333 23.8003 27.8667 24.0003 27.3333 24.0003H7.99999ZM7.13332 22.0003H27.3333V4.66699H4.66666V24.667L7.13332 22.0003ZM8.99999 18.7003H17.4333C17.7167 18.7003 17.9542 18.6039 18.1458 18.4112C18.3375 18.2184 18.4333 17.9795 18.4333 17.6945C18.4333 17.4095 18.3375 17.1725 18.1458 16.9837C17.9542 16.7948 17.7167 16.7003 17.4333 16.7003H8.99999C8.71666 16.7003 8.47916 16.7967 8.28749 16.9895C8.09582 17.1823 7.99999 17.4212 7.99999 17.7062C7.99999 17.9912 8.09582 18.2281 8.28749 18.417C8.47916 18.6059 8.71666 18.7003 8.99999 18.7003ZM8.99999 14.367H23C23.2833 14.367 23.5208 14.2706 23.7125 14.0778C23.9042 13.885 24 13.6461 24 13.3612C24 13.0762 23.9042 12.8392 23.7125 12.6503C23.5208 12.4614 23.2833 12.367 23 12.367H8.99999C8.71666 12.367 8.47916 12.4634 8.28749 12.6562C8.09582 12.849 7.99999 13.0878 7.99999 13.3728C7.99999 13.6578 8.09582 13.8948 8.28749 14.0837C8.47916 14.2725 8.71666 14.367 8.99999 14.367ZM8.99999 10.0337H23C23.2833 10.0337 23.5208 9.93727 23.7125 9.74449C23.9042 9.55169 24 9.3128 24 9.02783C24 8.74283 23.9042 8.50588 23.7125 8.31699C23.5208 8.1281 23.2833 8.03366 23 8.03366H8.99999C8.71666 8.03366 8.47916 8.13005 8.28749 8.32283C8.09582 8.51563 7.99999 8.75451 7.99999 9.03949C7.99999 9.32449 8.09582 9.56144 8.28749 9.75033C8.47916 9.93921 8.71666 10.0337 8.99999 10.0337Z" fill="black"/>
</g>
</g>
</svg>
