<svg width="32" height="32" viewBox="0 0 32 32" fill="none" xmlns="http://www.w3.org/2000/svg">
<g id="content_copy">
<mask id="mask0_147_397" style="mask-type:alpha" maskUnits="userSpaceOnUse" x="0" y="0" width="32" height="32">
<rect id="Bounding box" width="32" height="32" fill="#D9D9D9"/>
</mask>
<g mask="url(#mask0_147_397)">
<path id="content_copy_2" d="M10 25.3333C9.46667 25.3333 9 25.1333 8.6 24.7333C8.2 24.3333 8 23.8667 8 23.3333V4.66667C8 4.13334 8.2 3.66667 8.6 3.26667C9 2.86667 9.46667 2.66667 10 2.66667H24.6667C25.2 2.66667 25.6667 2.86667 26.0667 3.26667C26.4667 3.66667 26.6667 4.13334 26.6667 4.66667V23.3333C26.6667 23.8667 26.4667 24.3333 26.0667 24.7333C25.6667 25.1333 25.2 25.3333 24.6667 25.3333H10ZM10 23.3333H24.6667V4.66667H10V23.3333ZM6 29.3333C5.46667 29.3333 5 29.1333 4.6 28.7333C4.2 28.3333 4 27.8667 4 27.3333V7.66667C4 7.38334 4.09639 7.14584 4.28917 6.95417C4.48197 6.7625 4.72086 6.66667 5.00583 6.66667C5.29083 6.66667 5.52778 6.7625 5.71667 6.95417C5.90556 7.14584 6 7.38334 6 7.66667V27.3333H21.6667C21.95 27.3333 22.1875 27.4297 22.3792 27.6225C22.5708 27.8153 22.6667 28.0542 22.6667 28.3392C22.6667 28.6242 22.5708 28.8611 22.3792 29.05C22.1875 29.2389 21.95 29.3333 21.6667 29.3333H6Z" fill="black"/>
</g>
</g>
</svg>
