<svg width="32" height="32" viewBox="0 0 32 32" fill="none" xmlns="http://www.w3.org/2000/svg">
<g id="download">
<mask id="mask0_147_409" style="mask-type:alpha" maskUnits="userSpaceOnUse" x="0" y="0" width="32" height="32">
<rect id="Bounding box" width="32" height="32" fill="#D9D9D9"/>
</mask>
<g mask="url(#mask0_147_409)">
<path id="download_2" d="M15.9956 21.1667C15.8652 21.1667 15.7445 21.1445 15.6333 21.1C15.5222 21.0556 15.4111 20.9778 15.3 20.8667L10.2667 15.8333C10.0667 15.6273 9.97223 15.3869 9.98334 15.1121C9.99445 14.8374 10.0957 14.6 10.287 14.4C10.4957 14.2 10.7389 14.1 11.0167 14.1C11.2945 14.1 11.5333 14.2 11.7333 14.4L15 17.7V6.33334C15 6.05001 15.0964 5.81251 15.2892 5.62084C15.482 5.42918 15.7209 5.33334 16.0058 5.33334C16.2908 5.33334 16.5278 5.42918 16.7167 5.62084C16.9056 5.81251 17 6.05001 17 6.33334V17.7L20.3 14.4C20.4956 14.2 20.7278 14.1056 20.9967 14.1167C21.2656 14.1278 21.5044 14.2333 21.713 14.4333C21.9044 14.6333 22 14.8722 22 15.15C22 15.4278 21.9 15.6667 21.7 15.8667L16.7 20.8667C16.5889 20.9778 16.4763 21.0556 16.3622 21.1C16.2482 21.1445 16.1259 21.1667 15.9956 21.1667ZM7.33334 26.6667C6.80001 26.6667 6.33334 26.4667 5.93334 26.0667C5.53334 25.6667 5.33334 25.2 5.33334 24.6667V20.9C5.33334 20.6167 5.42973 20.3792 5.62251 20.1875C5.81531 19.9958 6.0542 19.9 6.33918 19.9C6.62418 19.9 6.86112 19.9958 7.05001 20.1875C7.2389 20.3792 7.33334 20.6167 7.33334 20.9V24.6667H24.6667V20.9C24.6667 20.6167 24.7631 20.3792 24.9558 20.1875C25.1486 19.9958 25.3875 19.9 25.6725 19.9C25.9575 19.9 26.1945 19.9958 26.3833 20.1875C26.5722 20.3792 26.6667 20.6167 26.6667 20.9V24.6667C26.6667 25.2 26.4667 25.6667 26.0667 26.0667C25.6667 26.4667 25.2 26.6667 24.6667 26.6667H7.33334Z" fill="black"/>
</g>
</g>
</svg>
