<svg width="32" height="32" viewBox="0 0 32 32" fill="none" xmlns="http://www.w3.org/2000/svg">
<g id="favorite">
<mask id="mask0_146_272" style="mask-type:alpha" maskUnits="userSpaceOnUse" x="0" y="0" width="32" height="32">
<rect id="Bounding box" width="32" height="32" fill="#D9D9D9"/>
</mask>
<g mask="url(#mask0_146_272)">
<path id="favorite_2" d="M16 27.3333C15.7622 27.3333 15.5202 27.2903 15.274 27.2044C15.0277 27.1184 14.8112 26.9808 14.6244 26.7917L12.8667 25.1667C10.1111 22.6111 7.72221 20.1722 5.69999 17.85C3.67777 15.5278 2.66666 13.1 2.66666 10.5667C2.66666 8.56322 3.33888 6.89014 4.68332 5.54743C6.02777 4.2047 7.68888 3.53333 9.66666 3.53333C10.8 3.53333 11.9222 3.80556 13.0333 4.35C14.1444 4.89444 15.1333 5.78889 16 7.03333C16.9778 5.78889 17.9889 4.89444 19.0333 4.35C20.0778 3.80556 21.1778 3.53333 22.3333 3.53333C24.3111 3.53333 25.9722 4.2047 27.3167 5.54743C28.6611 6.89014 29.3333 8.56322 29.3333 10.5667C29.3333 13.1 28.3222 15.5278 26.3 17.85C24.2778 20.1722 21.8889 22.6111 19.1333 25.1667L17.3667 26.8C17.1833 26.9862 16.9708 27.1217 16.7292 27.2063C16.4875 27.291 16.2444 27.3333 16 27.3333ZM15.1333 9.23333C14.5333 8.14444 13.7444 7.25556 12.7667 6.56667C11.7889 5.87778 10.7555 5.53333 9.66666 5.53333C8.19999 5.53333 6.99999 6.00556 6.06666 6.95C5.13332 7.89444 4.66666 9.10477 4.66666 10.581C4.66666 11.8603 5.09867 13.2073 5.96269 14.6218C6.82673 16.0363 7.86007 17.4086 9.06269 18.7385C10.2653 20.0684 11.5111 21.3056 12.8 22.45C14.0889 23.5944 15.1555 24.5556 16 25.3333C16.8444 24.5778 17.9111 23.6222 19.2 22.4667C20.4889 21.3111 21.7333 20.0611 22.9333 18.7167C24.1333 17.3722 25.1667 15.9923 26.0333 14.5769C26.9 13.1615 27.3333 11.8248 27.3333 10.5667C27.3333 9.1 26.8611 7.89444 25.9167 6.95C24.9722 6.00556 23.7778 5.53333 22.3333 5.53333C21.2222 5.53333 20.1833 5.87222 19.2167 6.55C18.25 7.22778 17.4444 8.12222 16.8 9.23333C16.6889 9.41111 16.5667 9.53889 16.4333 9.61667C16.3 9.69444 16.1444 9.73333 15.9667 9.73333C15.7889 9.73333 15.6278 9.69444 15.4833 9.61667C15.3389 9.53889 15.2222 9.41111 15.1333 9.23333Z" fill="black"/>
</g>
</g>
</svg>
