<svg width="32" height="32" viewBox="0 0 32 32" fill="none" xmlns="http://www.w3.org/2000/svg">
<g id="share">
<mask id="mask0_146_308" style="mask-type:alpha" maskUnits="userSpaceOnUse" x="0" y="0" width="32" height="32">
<rect id="Bounding box" width="32" height="32" fill="#D9D9D9"/>
</mask>
<g mask="url(#mask0_146_308)">
<path id="share_2" d="M24.2333 29.3333C23.1778 29.3333 22.2806 28.9628 21.5417 28.2218C20.8028 27.4808 20.4333 26.5809 20.4333 25.5223C20.4333 25.3741 20.45 25.1929 20.4833 24.9786C20.5167 24.7643 20.5667 24.5714 20.6333 24.4L10.5333 18.5333C10.2 18.9111 9.78889 19.2167 9.3 19.45C8.81111 19.6833 8.31111 19.8 7.8 19.8C6.74444 19.8 5.84722 19.4306 5.10833 18.6917C4.36944 17.9528 4 17.0556 4 16C4 14.9444 4.36944 14.0472 5.10833 13.3083C5.84722 12.5694 6.74444 12.2 7.8 12.2C8.31111 12.2 8.8 12.3 9.26667 12.5C9.73333 12.7 10.1556 12.9889 10.5333 13.3667L20.6333 7.56667C20.5667 7.40954 20.5167 7.23275 20.4833 7.0363C20.45 6.83988 20.4333 6.65001 20.4333 6.46667C20.4333 5.41112 20.8028 4.51389 21.5417 3.775C22.2806 3.03612 23.1778 2.66667 24.2333 2.66667C25.2889 2.66667 26.1861 3.03612 26.925 3.775C27.6639 4.51389 28.0333 5.41112 28.0333 6.46667C28.0333 7.52223 27.6639 8.41945 26.925 9.15834C26.1861 9.89723 25.2889 10.2667 24.2333 10.2667C23.7144 10.2667 23.2179 10.1833 22.7441 10.0167C22.2703 9.85001 21.8667 9.57778 21.5333 9.20001L11.4333 14.8C11.4778 14.9778 11.5167 15.1833 11.55 15.4167C11.5833 15.65 11.6 15.8471 11.6 16.008C11.6 16.169 11.5833 16.3356 11.55 16.508C11.5167 16.6805 11.4778 16.8556 11.4333 17.0333L21.5333 22.7667C21.8667 22.4556 22.2556 22.2056 22.7 22.0167C23.1444 21.8278 23.6556 21.7333 24.2333 21.7333C25.2889 21.7333 26.1861 22.1028 26.925 22.8417C27.6639 23.5806 28.0333 24.4778 28.0333 25.5333C28.0333 26.5889 27.6639 27.4861 26.925 28.225C26.1861 28.9639 25.2889 29.3333 24.2333 29.3333ZM24.2345 8.26667C24.7448 8.26667 25.1722 8.09406 25.5167 7.74884C25.8611 7.40362 26.0333 6.97584 26.0333 6.46551C26.0333 5.95517 25.8607 5.52778 25.5155 5.18334C25.1703 4.83889 24.7425 4.66667 24.2322 4.66667C23.7218 4.66667 23.2944 4.83928 22.95 5.1845C22.6056 5.52973 22.4333 5.9575 22.4333 6.46784C22.4333 6.97817 22.6059 7.40556 22.9512 7.75C23.2964 8.09445 23.7242 8.26667 24.2345 8.26667ZM7.80117 17.8C8.3115 17.8 8.73889 17.6274 9.08333 17.2822C9.42778 16.9369 9.6 16.5092 9.6 15.9988C9.6 15.4885 9.42739 15.0611 9.08217 14.7167C8.73694 14.3722 8.30917 14.2 7.79883 14.2C7.2885 14.2 6.86111 14.3726 6.51667 14.7178C6.17222 15.0631 6 15.4908 6 16.0012C6 16.5115 6.17261 16.9389 6.51783 17.2833C6.86306 17.6278 7.29083 17.8 7.80117 17.8ZM24.2345 27.3333C24.7448 27.3333 25.1722 27.1607 25.5167 26.8155C25.8611 26.4703 26.0333 26.0425 26.0333 25.5322C26.0333 25.0218 25.8607 24.5944 25.5155 24.25C25.1703 23.9056 24.7425 23.7333 24.2322 23.7333C23.7218 23.7333 23.2944 23.9059 22.95 24.2512C22.6056 24.5964 22.4333 25.0242 22.4333 25.5345C22.4333 26.0448 22.6059 26.4722 22.9512 26.8167C23.2964 27.1611 23.7242 27.3333 24.2345 27.3333Z" fill="black"/>
</g>
</g>
</svg>
