<svg width="32" height="32" viewBox="0 0 32 32" fill="none" xmlns="http://www.w3.org/2000/svg">
<g id="visibility">
<mask id="mask0_149_441" style="mask-type:alpha" maskUnits="userSpaceOnUse" x="0" y="0" width="32" height="32">
<rect id="Bounding box" width="32" height="32" fill="#D9D9D9"/>
</mask>
<g mask="url(#mask0_149_441)">
<path id="visibility_2" d="M16.0039 21C17.5791 21 18.9167 20.4487 20.0167 19.3461C21.1167 18.2435 21.6667 16.9046 21.6667 15.3294C21.6667 13.7543 21.1154 12.4167 20.0127 11.3167C18.9101 10.2167 17.5712 9.66668 15.9961 9.66668C14.4209 9.66668 13.0833 10.218 11.9833 11.3206C10.8833 12.4232 10.3333 13.7621 10.3333 15.3373C10.3333 16.9124 10.8846 18.25 11.9873 19.35C13.0899 20.45 14.4288 21 16.0039 21ZM15.9922 19.0667C14.9529 19.0667 14.0722 18.703 13.35 17.9755C12.6278 17.248 12.2667 16.3647 12.2667 15.3255C12.2667 14.2863 12.6304 13.4056 13.3578 12.6833C14.0853 11.9611 14.9686 11.6 16.0078 11.6C17.0471 11.6 17.9278 11.9637 18.65 12.6912C19.3722 13.4186 19.7333 14.302 19.7333 15.3412C19.7333 16.3804 19.3696 17.2611 18.6422 17.9833C17.9147 18.7056 17.0314 19.0667 15.9922 19.0667ZM16 25.3333C13 25.3333 10.2722 24.4889 7.81667 22.8C5.36111 21.1111 3.38889 18.9556 1.9 16.3333C1.81111 16.175 1.74444 16.0123 1.7 15.8451C1.65555 15.678 1.63333 15.5065 1.63333 15.3306C1.63333 15.1546 1.65555 14.9837 1.7 14.8179C1.74444 14.652 1.81111 14.4905 1.9 14.3333C3.38889 11.7111 5.36111 9.55557 7.81667 7.86668C10.2722 6.17779 13 5.33334 16 5.33334C19 5.33334 21.7278 6.17779 24.1833 7.86668C26.6389 9.55557 28.6111 11.7111 30.1 14.3333C30.1889 14.4917 30.2556 14.6544 30.3 14.8215C30.3444 14.9887 30.3667 15.1602 30.3667 15.3361C30.3667 15.512 30.3444 15.6829 30.3 15.8488C30.2556 16.0147 30.1889 16.1762 30.1 16.3333C28.6111 18.9556 26.6389 21.1111 24.1833 22.8C21.7278 24.4889 19 25.3333 16 25.3333ZM15.9944 23.3333C18.687 23.3333 21.1611 22.6056 23.4167 21.15C25.6722 19.6945 27.3889 17.7556 28.5667 15.3333C27.3889 12.9111 25.6741 10.9722 23.4223 9.51668C21.1705 8.06112 18.6983 7.33334 16.0056 7.33334C13.313 7.33334 10.8389 8.06112 8.58333 9.51668C6.32778 10.9722 4.6 12.9111 3.4 15.3333C4.6 17.7556 6.3259 19.6945 8.5777 21.15C10.8295 22.6056 13.3017 23.3333 15.9944 23.3333Z" fill="black"/>
</g>
</g>
</svg>
